<!-- icon666.com - MILLIONS vector ICONS FREE --><svg viewBox="0 0 314.65 314.65" xmlns="http://www.w3.org/2000/svg" xmlns:xlink="http://www.w3.org/1999/xlink"><linearGradient id="linear-gradient" gradientUnits="userSpaceOnUse" x1="74.38" x2="236.37" y1="40.59" y2="268.58"><stop offset="0" stop-color="#b81600"></stop><stop offset="1" stop-color="#730001"></stop></linearGradient><linearGradient id="linear-gradient-2" gradientUnits="userSpaceOnUse" x1="180.39" x2="224.64" y1="243.37" y2="307.8"><stop offset="0" stop-color="#f5cc25"></stop><stop offset="1" stop-color="#e6bc14"></stop></linearGradient><linearGradient id="linear-gradient-3" x1="187.71" x2="231.96" xlink:href="#linear-gradient-2" y1="238.34" y2="302.77"></linearGradient><linearGradient id="linear-gradient-4" x1="282.69" x2="302.25" xlink:href="#linear-gradient-2" y1="93.68" y2="113.24"></linearGradient><linearGradient id="linear-gradient-5" x1="27.84" x2="70.23" xlink:href="#linear-gradient-2" y1="35.83" y2="52.11"></linearGradient><g id="svg8"><path id="path927-5" d="m77.62 0a38.16 38.16 0 0 0 -38.08 38.08v238.49a38.16 38.16 0 0 0 38.07 38.08h159.39a38.08 38.08 0 1 0 0-76.15h-121v-43.09h92.48a38.08 38.08 0 1 0 0-76.15h-92.48v-43.11h121a38.08 38.08 0 1 0 0-76.15z" fill="url(#linear-gradient)"></path></g><g id="Layer_3" data-name="Layer 3"><path d="m192 314.65c-3-.08-5.41-.2-10.68-.46 0 0-5.25.29-5-3.36.11-1.63 1.7-2.23 2.51-2.52a18.33 18.33 0 0 1 8.08-.69c.51 0 1 .13 1.51.18a1.79 1.79 0 0 0 2-1.08 1.72 1.72 0 0 0 -.71-2.16 13.82 13.82 0 0 1 -3-3.11 12.48 12.48 0 0 1 -2.16-9.21c.14-1 2.34-11.81 14-8.67 1.51.38 1.59-1.93-.48-2.52-11-3.18-16.5 9.18-17 10.12-.65 1.3-1.34 2.58-2 3.87-.58 1.09-2.89 2-3.84 1.36-2.62-1.86-1.69-5.45-1.13-8.31a80.77 80.77 0 0 1 5.3-16.21c1.44-3.37 3-6.7 3.71-10.34a15.58 15.58 0 0 0 .28-2.82 11.62 11.62 0 0 0 -.77-3.89c-2.67-5-6.86-8.38-8.76-13.71-1.14-3.43-1.14-6.86 1.14-9.9 3.43-4.57 9.14-6.48 14.39-6.54a22.18 22.18 0 0 1 3.19.2 22.62 22.62 0 0 1 9 3.24q1 .7 2 1.49a29.87 29.87 0 0 1 5.09 5.5 4.55 4.55 0 0 0 3 2q1.18.23 2.35.51t2.33.59c1.21.32 2.42.69 3.61 1.12s2.37.89 3.53 1.42a55.46 55.46 0 0 1 7.8 4.76 30.29 30.29 0 0 1 2.43 2.06c3.74 3.51 7.54 8.85 6 13.8-.76 1.9-4.57 1.14-6.93.74a17.55 17.55 0 0 1 -3.26-.71c-3.13-.94-6-2.86-8.78-4.41a30.85 30.85 0 0 1 -2.94-1.73c-2.81-1.88-5.88-3.81-8-6.68a11.87 11.87 0 0 0 -.9-1.1c-.65-.69-1.29-1.26-2.08-.72-1.21.83.36 2.92.66 3.34 5.07 7.13 9.76 14.52 15.16 21.41a39.6 39.6 0 0 1 7.35 14.96c.32 1.31.84 6.61-1.14 6.36-6.57-.86-9.87 5.46-4.6 11.24 2 1.45-3.62 4.08-5.56 4.88q-1.26.67-2.66 1.27c-6.49 2.78-14.97 4.43-24.04 4.43z" fill="url(#linear-gradient-2)"></path><path d="m229 294a11 11 0 0 1 3 .47 7.28 7.28 0 0 1 3.55 3.39c1.16 2.91-1.16 6.11-4 6.86a7.78 7.78 0 0 1 -2.44.42c-2 0-3.2-1.75-4.59-3a8.23 8.23 0 0 1 -1-2 4.07 4.07 0 0 1 2.62-5.57 10 10 0 0 1 2.86-.57z" fill="url(#linear-gradient-3)"></path><path d="m313.71 102.9-12.89 12.89a3.22 3.22 0 0 1 -4.07.38 12.94 12.94 0 0 0 -14.22 0 3.22 3.22 0 0 1 -4.07-.38l-12.88-12.89a3.2 3.2 0 0 1 .22-4.73 37.39 37.39 0 0 1 47.69 0 3.2 3.2 0 0 1 .22 4.73z" fill="url(#linear-gradient-4)"></path><path d="m92.09 19.48h-31.57a8.62 8.62 0 0 0 -4 16.28h-39.52a8.62 8.62 0 0 0 -3.61 16.46h-4.76a8.63 8.63 0 0 0 0 17.26h12a8.62 8.62 0 0 0 3.61-16.48h46.53a8.62 8.62 0 0 0 4-16.28h17.32a8.63 8.63 0 1 0 0-17.26z" fill="url(#linear-gradient-5)"></path></g></svg>